<?xml version="1.0" encoding="UTF-8"?><svg id="Layer_1" xmlns="http://www.w3.org/2000/svg" viewBox="0 0 520 214"><defs><style>.cls-1{fill:#e70b77;}.cls-2{fill:#fff;}</style></defs><path class="cls-2" d="M203.86,159.26c-30.71,0-51.34-20.1-51.34-50.02V59.06c0-1.9,1.54-3.44,3.44-3.44h11.62c1.9,0,3.44,1.54,3.44,3.44v50.18c0,7.39,2.37,31.52,32.84,31.52s32.84-24.13,32.84-31.52V59.06c0-1.9,1.54-3.44,3.44-3.44h11.62c1.9,0,3.44,1.54,3.44,3.44v50.18c0,29.92-20.63,50.02-51.34,50.02Z"/><path class="cls-2" d="M365.85,55.73h-10.4c-2.24,0-4.05,1.81-4.05,4.05v7.17c-9.21-7.95-21.2-12.76-34.29-12.76-28.97,0-52.54,23.57-52.54,52.54s23.57,52.54,52.54,52.54c13.09,0,25.08-4.81,34.29-12.76v13.3c0,29.25-25.14,31.52-32.84,31.52s-30.63-2.07-32.69-27.75c-.17-2.12-1.91-3.77-4.04-3.77h-10.42c-2.35,0-4.21,2-4.04,4.35,1.91,27.5,22,45.67,51.19,45.67,30.71,0,51.34-20.1,51.34-50.02V59.77c0-2.24-1.81-4.05-4.05-4.05Zm-48.74,85.04c-18.77,0-34.04-15.27-34.04-34.04s15.27-34.04,34.04-34.04,34.04,15.27,34.04,34.04-15.27,34.04-34.04,34.04Z"/><rect class="cls-2" x="379.43" y="55.62" width="18.5" height="103.79" rx="4.07" ry="4.07"/><circle class="cls-1" cx="389.27" cy="35.08" r="12.94"/><path class="cls-2" d="M512.7,101.16c0-.06-.02-.11-.02-.16-2.86-26.28-25.19-46.81-52.23-46.81-28.97,0-52.54,23.57-52.54,52.54s23.57,52.54,52.54,52.54v-18.5c-18.77,0-34.04-15.27-34.04-34.04s15.27-34.04,34.04-34.04c15.56,0,28.71,10.5,32.75,24.79h-55.25c-2.26,0-4.09,1.83-4.09,4.09v10.32c0,2.26,1.83,4.09,4.09,4.09h71.26c2.26,0,4.09-1.83,4.09-4.09-.04-2.8-.19-6.73-.6-10.73Z"/><path class="cls-2" d="M143.04,64.47h0V19.03c0-4.81-2.19-9.45-6.12-12.21-4.97-3.48-11.44-3.5-16.38-.2C91.54,25.99,35.78,79.92,9.01,151.6c-.68,1.82-1.29,3.68-1.97,5.49-.2,.52-.46,1.05-.27,1.62,.22,.67,.97,1.01,1.67,1.09,1.32,.14,2.72,.03,4.05,.03h4.47c2.32,0,4.65,0,6.97,0,1.73,0,2.54-2.01,3.07-3.37,8.49-22.21,18.09-40.9,27.95-56.62l.07-.04H124.46s.08,.04,.08,.08v56.48c0,1.94,1.54,3.51,3.44,3.51h11.62c1.9,0,3.44-1.57,3.44-3.51v-51.17s0-.1,0-.15v-40.57Zm-18.5,16.75s-.04,.08-.08,.08h-56.67c-.06,0-.1-.08-.06-.13,22.84-30.54,45.17-46.71,56.69-55.4,.05-.04,.12,0,.12,.06v55.39Z"/></svg>